<svg version="1.1" id="Layer_1" xmlns="http://www.w3.org/2000/svg" xmlns:xlink="http://www.w3.org/1999/xlink" x="0px" y="0px"
	 width="100%" viewBox="0 0 475 491" enable-background="new 0 0 475 491" xml:space="preserve">
<path fill="#FFFFFF" opacity="1.000000" stroke="none" 
	d="
M1.000000,180.000000 
	C1.000000,120.015381 1.000000,60.530762 1.000000,1.023072 
	C159.277008,1.023072 317.554047,1.023072 475.915527,1.023072 
	C475.915527,164.568008 475.915527,328.136078 475.915527,491.852051 
	C317.666779,491.852051 159.333405,491.852051 1.000000,491.852051 
	C1.000000,388.112518 1.000000,284.306274 1.000000,180.000000 
M216.884521,461.985046 
	C223.269119,461.944153 229.653717,461.903259 236.968033,461.990173 
	C306.564850,461.990173 376.161652,461.990173 446.000000,461.990173 
	C446.000000,459.809875 446.000000,458.168152 446.000000,456.526428 
	C446.000000,420.527588 446.018188,384.528778 445.993408,348.529938 
	C445.977478,325.367584 445.898468,302.205292 445.946381,278.136749 
	C445.916748,275.413727 445.887085,272.690674 445.989929,269.042755 
	C445.989929,187.497330 445.989929,105.951897 445.989929,24.000008 
	C444.334045,24.000008 443.048065,24.000010 441.762054,24.000010 
	C355.009521,24.000013 268.257019,23.999407 181.504501,24.006460 
	C180.342667,24.006556 179.180847,24.103563 177.109100,24.030844 
	C173.732620,24.072021 170.356155,24.113201 166.054703,24.010906 
	C119.495720,24.010906 72.936729,24.010906 26.000000,24.010906 
	C26.000000,26.196922 26.000000,27.985706 26.000000,29.774490 
	C26.000000,99.186981 25.995541,168.599472 26.006577,238.011963 
	C26.007740,245.332581 26.100090,252.653198 26.030037,260.906189 
	C26.061993,266.617981 26.093948,272.329773 26.008944,278.971161 
	C26.008944,339.899170 26.008944,400.827179 26.008944,462.000000 
	C40.352272,462.000000 54.158875,462.008728 67.965462,461.998413 
	C117.292473,461.961517 166.619476,461.918182 216.884521,461.985046 
z"/>
<path fill="#8C53FF" opacity="1.000000" stroke="none" 
	d="
M26.125904,278.041565 
	C26.093948,272.329773 26.061993,266.617981 26.446617,260.213074 
	C27.232519,240.671890 32.226097,222.946091 39.631634,205.745819 
	C48.405777,185.366837 60.963879,167.905609 77.385841,152.860565 
	C91.740921,139.709106 108.599136,130.564346 124.967972,120.583183 
	C142.978638,109.600891 161.199387,98.963211 179.324142,88.167870 
	C190.886322,81.281281 202.433884,74.370125 214.000198,67.490532 
	C222.352402,62.522675 233.675629,64.780441 238.442749,74.137428 
	C245.058716,87.123314 251.440445,100.292397 256.828766,113.818733 
	C260.813049,123.820580 263.052460,134.517532 265.776794,145.142670 
	C265.369568,145.687897 265.111481,146.020462 265.160522,146.298965 
	C268.430359,164.873444 270.385742,183.411957 269.248474,202.442688 
	C267.853851,225.779800 263.643829,248.365753 255.753571,270.250671 
	C244.729996,300.826447 227.684143,327.792419 205.173523,351.191467 
	C189.417587,367.569275 171.122665,380.767242 151.533203,392.206268 
	C136.352234,401.071106 121.184219,409.958130 105.639191,419.023499 
	C104.688622,419.468628 104.123497,419.909149 103.527863,419.955231 
	C93.054276,420.765198 87.408180,414.818909 82.547363,406.319427 
	C70.966972,386.070343 58.489452,366.336151 46.776638,346.160431 
	C36.924816,329.190277 30.422611,310.944122 27.986708,291.362244 
	C27.433325,286.913696 26.749622,282.481354 26.125904,278.041565 
z"/>
<path fill="transparent" opacity="1.000000" stroke="none" 
	d="
M266.069244,144.904785 
	C263.052460,134.517532 260.813049,123.820580 256.828766,113.818733 
	C251.440445,100.292397 245.058716,87.123314 238.442749,74.137428 
	C233.675629,64.780441 222.352402,62.522675 214.000198,67.490532 
	C202.433884,74.370125 190.886322,81.281281 179.324142,88.167870 
	C161.199387,98.963211 142.978638,109.600891 124.967972,120.583183 
	C108.599136,130.564346 91.740921,139.709106 77.385841,152.860565 
	C60.963879,167.905609 48.405777,185.366837 39.631634,205.745819 
	C32.226097,222.946091 27.232519,240.671890 26.506668,259.746887 
	C26.100090,252.653198 26.007740,245.332581 26.006577,238.011963 
	C25.995541,168.599472 26.000000,99.186981 26.000000,29.774490 
	C26.000000,27.985706 26.000000,26.196922 26.000000,24.010906 
	C72.936729,24.010906 119.495720,24.010906 166.354111,24.399639 
	C155.454620,27.957872 153.102890,38.347099 155.854446,47.409531 
	C158.366440,55.682911 168.462753,60.808243 178.453644,57.798122 
	C185.947739,55.540249 190.635162,46.131092 189.282562,38.427879 
	C188.038208,31.341078 183.524612,27.522158 178.019012,24.155338 
	C179.180847,24.103563 180.342667,24.006556 181.504501,24.006460 
	C268.257019,23.999407 355.009521,24.000013 441.762054,24.000010 
	C443.048065,24.000010 444.334045,24.000008 445.989929,24.000008 
	C445.989929,105.951897 445.989929,187.497330 445.604309,269.366913 
	C443.296173,268.127563 441.598785,265.728302 439.413666,265.139709 
	C427.572418,261.950104 415.620331,259.167511 403.688110,256.321228 
	C384.826721,251.822128 365.950867,247.383774 347.193787,242.552185 
	C347.582397,240.935181 347.789978,239.665924 348.144653,238.439224 
	C352.755585,222.491455 354.628357,206.097397 354.836334,189.617920 
	C354.994141,177.115356 354.022034,164.561523 352.886719,152.091141 
	C351.944153,141.737885 344.933441,134.157837 334.176056,135.017014 
	C331.411926,135.237793 328.652985,135.592560 325.911255,136.013275 
	C315.781494,137.567703 305.669037,139.236496 295.532745,140.745926 
	C285.722687,142.206757 275.891266,143.524307 266.069244,144.904785 
M295.199127,87.310844 
	C293.681915,99.721977 297.603699,105.852448 306.361755,109.082092 
	C311.908813,111.127632 317.491089,110.612396 322.170349,107.136192 
	C327.218719,103.385803 330.549500,98.073555 329.888062,91.536789 
	C328.975311,82.515717 322.801849,76.281929 314.480927,75.016174 
	C306.650726,73.825066 299.726013,78.158890 295.199127,87.310844 
M431.997589,227.235489 
	C432.000031,224.256561 432.354248,221.227615 431.938995,218.308090 
	C430.685638,209.495636 421.849548,204.974197 415.096741,205.030365 
	C407.295807,205.095245 398.895538,211.969360 398.007141,218.780472 
	C396.690460,228.875320 400.698486,236.331558 409.159576,239.043930 
	C417.910675,241.849274 427.188416,239.560837 431.997589,227.235489 
z"/>
<path fill="#FF66C4" opacity="1.000000" stroke="none" 
	d="
M347.081116,242.919708 
	C365.950867,247.383774 384.826721,251.822128 403.688110,256.321228 
	C415.620331,259.167511 427.572418,261.950104 439.413666,265.139709 
	C441.598785,265.728302 443.296173,268.127563 445.538055,269.829346 
	C445.887085,272.690674 445.916748,275.413727 445.553955,278.771179 
	C440.314117,302.574280 433.191559,324.906586 421.728302,345.773956 
	C409.091156,368.778198 393.164185,388.975891 373.361694,406.314331 
	C356.739502,420.868195 338.593536,432.840027 318.493683,441.852478 
	C292.929047,453.315216 266.292297,460.451050 238.106934,461.036499 
	C237.411972,461.050934 236.727615,461.575623 236.038330,461.862366 
	C229.653717,461.903259 223.269119,461.944153 216.212311,461.559021 
	C207.031952,460.407135 198.314255,460.622192 190.054138,458.782623 
	C163.091980,452.778046 136.296707,446.024109 107.931908,439.196075 
	C115.087067,437.255463 120.869186,435.959381 126.470940,434.115387 
	C141.487503,429.172119 156.427826,423.997223 171.396622,418.908936 
	C193.073074,411.540588 213.937866,402.498291 232.654709,389.065186 
	C233.292480,388.607452 233.559113,387.632568 233.965332,386.924927 
	C233.931931,386.951141 233.941315,387.035553 234.210968,387.327576 
	C235.628036,386.770355 236.775482,385.921051 238.236191,384.920654 
	C262.148590,368.650391 284.708282,351.408661 302.772552,328.853607 
	C317.308777,310.703674 329.291138,291.118744 337.902832,269.548523 
	C341.379974,260.839020 344.045990,251.805695 347.081116,242.919708 
z"/>
<path fill="transparent" opacity="1.000000" stroke="none" 
	d="
M236.503174,461.926270 
	C236.727615,461.575623 237.411972,461.050934 238.106934,461.036499 
	C266.292297,460.451050 292.929047,453.315216 318.493683,441.852478 
	C338.593536,432.840027 356.739502,420.868195 373.361694,406.314331 
	C393.164185,388.975891 409.091156,368.778198 421.728302,345.773956 
	C433.191559,324.906586 440.314117,302.574280 445.504639,279.224304 
	C445.898468,302.205292 445.977478,325.367584 445.993408,348.529938 
	C446.018188,384.528778 446.000000,420.527588 446.000000,456.526428 
	C446.000000,458.168152 446.000000,459.809875 446.000000,461.990173 
	C376.161652,461.990173 306.564850,461.990173 236.503174,461.926270 
z"/>
<path fill="transparent" opacity="1.000000" stroke="none" 
	d="
M233.998734,386.898712 
	C233.559113,387.632568 233.292480,388.607452 232.654709,389.065186 
	C213.937866,402.498291 193.073074,411.540588 171.396622,418.908936 
	C156.427826,423.997223 141.487503,429.172119 126.470940,434.115387 
	C120.869186,435.959381 115.087067,437.255463 107.931908,439.196075 
	C136.296707,446.024109 163.091980,452.778046 190.054138,458.782623 
	C198.314255,460.622192 207.031952,460.407135 215.743286,461.505127 
	C166.619476,461.918182 117.292473,461.961517 67.965462,461.998413 
	C54.158875,462.008728 40.352272,462.000000 26.008944,462.000000 
	C26.008944,400.827179 26.008944,339.899170 26.067425,278.506348 
	C26.749622,282.481354 27.433325,286.913696 27.986708,291.362244 
	C30.422611,310.944122 36.924816,329.190277 46.776638,346.160431 
	C58.489452,366.336151 70.966972,386.070343 82.547363,406.319427 
	C87.408180,414.818909 93.054276,420.765198 103.527863,419.955231 
	C104.123497,419.909149 104.688622,419.468628 106.073532,419.092926 
	C108.369255,418.945496 109.887619,419.093628 111.345123,418.860748 
	C125.428902,416.610565 139.544205,414.522461 153.566406,411.932709 
	C165.931442,409.648956 178.496750,407.745880 190.416443,403.932983 
	C205.243073,399.190216 219.497299,392.658081 233.998734,386.898712 
z"/>
<path fill="#8C53FF" opacity="1.000000" stroke="none" 
	d="
M177.564056,24.093090 
	C183.524612,27.522158 188.038208,31.341078 189.282562,38.427879 
	C190.635162,46.131092 185.947739,55.540249 178.453644,57.798122 
	C168.462753,60.808243 158.366440,55.682911 155.854446,47.409531 
	C153.102890,38.347099 155.454620,27.957872 166.816589,24.471375 
	C170.356155,24.113201 173.732620,24.072021 177.564056,24.093090 
z"/>
<path fill="#CA6CE6" opacity="1.000000" stroke="none" 
	d="
M233.965332,386.924927 
	C219.497299,392.658081 205.243073,399.190216 190.416443,403.932983 
	C178.496750,407.745880 165.931442,409.648956 153.566406,411.932709 
	C139.544205,414.522461 125.428902,416.610565 111.345123,418.860748 
	C109.887619,419.093628 108.369255,418.945496 106.444778,418.904724 
	C121.184219,409.958130 136.352234,401.071106 151.533203,392.206268 
	C171.122665,380.767242 189.417587,367.569275 205.173523,351.191467 
	C227.684143,327.792419 244.729996,300.826447 255.753571,270.250671 
	C263.643829,248.365753 267.853851,225.779800 269.248474,202.442688 
	C270.385742,183.411957 268.430359,164.873444 265.160522,146.298965 
	C265.111481,146.020462 265.369568,145.687897 265.776794,145.142670 
	C275.891266,143.524307 285.722687,142.206757 295.532745,140.745926 
	C305.669037,139.236496 315.781494,137.567703 325.911255,136.013275 
	C328.652985,135.592560 331.411926,135.237793 334.176056,135.017014 
	C344.933441,134.157837 351.944153,141.737885 352.886719,152.091141 
	C354.022034,164.561523 354.994141,177.115356 354.836334,189.617920 
	C354.628357,206.097397 352.755585,222.491455 348.144653,238.439224 
	C347.789978,239.665924 347.582397,240.935181 347.193787,242.552185 
	C344.045990,251.805695 341.379974,260.839020 337.902832,269.548523 
	C329.291138,291.118744 317.308777,310.703674 302.772552,328.853607 
	C284.708282,351.408661 262.148590,368.650391 237.887619,384.892517 
	C236.130951,385.688873 235.036133,386.362213 233.941315,387.035553 
	C233.941315,387.035553 233.931931,386.951141 233.965332,386.924927 
z"/>
<path fill="#CA6CE6" opacity="1.000000" stroke="none" 
	d="
M295.492310,87.013771 
	C299.726013,78.158890 306.650726,73.825066 314.480927,75.016174 
	C322.801849,76.281929 328.975311,82.515717 329.888062,91.536789 
	C330.549500,98.073555 327.218719,103.385803 322.170349,107.136192 
	C317.491089,110.612396 311.908813,111.127632 306.361755,109.082092 
	C297.603699,105.852448 293.681915,99.721977 295.492310,87.013771 
z"/>
<path fill="#FF66C4" opacity="1.000000" stroke="none" 
	d="
M431.982697,227.642349 
	C427.188416,239.560837 417.910675,241.849274 409.159576,239.043930 
	C400.698486,236.331558 396.690460,228.875320 398.007141,218.780472 
	C398.895538,211.969360 407.295807,205.095245 415.096741,205.030365 
	C421.849548,204.974197 430.685638,209.495636 431.938995,218.308090 
	C432.354248,221.227615 432.000031,224.256561 431.982697,227.642349 
z"/>
<path fill="transparent" opacity="1.000000" stroke="none" 
	d="
M234.210968,387.327576 
	C235.036133,386.362213 236.130951,385.688873 237.574341,385.043640 
	C236.775482,385.921051 235.628036,386.770355 234.210968,387.327576 
z"/>
</svg>