<?xml version="1.0" encoding="UTF-8" standalone="no"?>
<svg
   xmlns:dc="http://purl.org/dc/elements/1.1/"
   xmlns:cc="http://creativecommons.org/ns#"
   xmlns:rdf="http://www.w3.org/1999/02/22-rdf-syntax-ns#"
   xmlns:svg="http://www.w3.org/2000/svg"
   xmlns="http://www.w3.org/2000/svg"
   xmlns:sodipodi="http://sodipodi.sourceforge.net/DTD/sodipodi-0.dtd"
   xmlns:inkscape="http://www.inkscape.org/namespaces/inkscape"
   width="700"
   height="700"
   viewBox="0 0 700 700"
   version="1.1"
   id="svg8"
   sodipodi:docname="wella-logo.svg"
   inkscape:version="0.92.3 (2405546, 2018-03-11)"
   inkscape:export-filename="C:\Users\alex\sites\wella-logo-0.png"
   inkscape:export-xdpi="561.73712"
   inkscape:export-ydpi="561.73712">
  <metadata
     id="metadata12">
    <rdf:RDF>
      <cc:Work
         rdf:about="">
        <dc:format>image/svg+xml</dc:format>
        <dc:type
           rdf:resource="http://purl.org/dc/dcmitype/StillImage" />
        <dc:title></dc:title>
      </cc:Work>
    </rdf:RDF>
  </metadata>
  <sodipodi:namedview
     pagecolor="#ffffff"
     bordercolor="#666666"
     borderopacity="1"
     objecttolerance="10"
     gridtolerance="10"
     guidetolerance="10"
     inkscape:pageopacity="0"
     inkscape:pageshadow="2"
     inkscape:window-width="1600"
     inkscape:window-height="838"
     id="namedview10"
     showgrid="false"
     inkscape:zoom="0.57982756"
     inkscape:cx="98.158481"
     inkscape:cy="334.08943"
     inkscape:window-x="-8"
     inkscape:window-y="-8"
     inkscape:window-maximized="1"
     inkscape:current-layer="svg8" />
  <defs
     id="defs2" />
  <g
     id="symbols"
     style="fill:#f41247;fill-opacity:1;fill-rule:evenodd;stroke:none;stroke-width:1"
     transform="matrix(4.2316942,0,0,4.2316942,85.529269,206.9899)"
     inkscape:export-filename="C:\Users\alex\sites\wella-logo-4.png"
     inkscape:export-xdpi="72.597832"
     inkscape:export-ydpi="72.597832">
    <g
       id="UI-/-top_nav-red"
       transform="translate(-900,-20)"
       style="fill:#f41247;fill-opacity:1">
      <g
         id="Wella_logo"
         transform="translate(900,20)"
         style="fill:#f41247;fill-opacity:1">
        <path
           d="m 59.215828,27.22997 c 5.640545,2.882341 11.394441,5.496388 26.745359,-1.633327 l 0.08276,-0.03988 c 9.967662,-4.620809 15.208783,-5.456507 18.573323,-0.485828 0.24469,0.371622 0.77006,0.235663 0.50198,-1.044169 C 104.35278,20.192709 101.7871,18.2077 98.010539,17.879585 93.521497,17.47533 86.670079,20.636841 86.670079,20.636841 74.660306,26.082471 71.974075,25.948325 67.431052,25.22502 59.953507,24.037641 51.124749,16.380403 48.222612,14.034648 45.307881,11.66714 41.86418,9.2506871 37.913099,9.7256389 36.9919,9.8398449 36.099488,10.108138 35.300636,10.572213 c -0.296871,0.164965 -1.496948,0.868328 -1.302633,1.303399 0.133142,0.309987 0.604537,0.206658 0.85103,0.154087 L 36.376568,11.8031 c 2.214836,-0.237476 5.392253,0.424193 9.188601,3.761546 4.70855,4.133168 8.98349,9.279688 13.650659,11.665324 z M 36.090492,0.00181641 c 1.896375,-0.03081748 3.79275,0.33174115 5.618955,0.99341065 3.774757,1.37409724 6.98456,3.68903404 10.235745,5.98221744 3.188212,2.2623658 6.326047,4.7223265 9.814728,6.5314935 3.781954,1.961442 6.860415,2.684747 9.454885,2.737318 4.132802,0.06164 7.013348,-1.611573 9.557441,-2.748195 0.07377,-0.03263 7.241848,-3.5748277 11.774075,-3.7198511 4.66537,-0.1540874 7.148289,2.6956231 7.815799,4.9888071 0.32746,1.127557 0.09,1.747532 -0.381434,1.220009 -1.372803,-1.51912 -2.788786,-2.550599 -5.199737,-2.58323 -2.234628,-0.03988 -5.332879,0.764999 -10.028835,2.84246 C 76.700618,19.77939 70.027322,23.789288 59.143859,17.062013 55.266546,14.6655 51.565557,12.018822 47.851973,9.3848338 44.500032,6.9865084 40.849421,4.290885 36.552891,4.1875558 c -2.842763,-0.072512 -5.714313,0.6417288 -7.529723,2.9349121 -0.338253,0.4332576 -0.604537,0.9390269 -1.05614,1.2816448 -0.338253,0.2465398 -3.835931,2.1481603 -4.481849,5.2589133 -0.257288,1.229073 -0.124146,2.675682 -0.748475,3.792363 -0.636922,1.167439 -3.949281,3.563951 -4.512436,3.957327 -0.246492,0.164964 -1.230664,0.690674 -1.178487,0.991598 0.09176,0.619975 0.707092,1.094927 1.198279,1.426668 0.421017,0.290047 0.626127,0.774063 0.617131,1.270768 -0.0108,0.600035 -0.32026,1.178316 -0.761069,1.569879 -0.368839,0.329929 0.39043,0.960781 0.687301,1.084051 0.248292,0.114206 0.503781,0.250165 0.451604,0.569217 -0.05937,0.300923 -0.347249,0.331741 -0.532569,0.538399 -0.176323,0.195782 -0.29867,0.442322 -0.377835,0.701551 -0.07377,0.248353 -0.02159,0.248353 0.152933,0.413317 0.100756,0.09427 0.183521,0.195782 0.257288,0.299111 0.131343,0.186718 0.223103,0.424193 0.212308,0.650793 -0.01799,0.465887 -0.430013,0.951716 -0.593742,1.386786 -0.338252,0.919087 -0.349048,2.066585 0.822242,2.282307 0.994967,0.184905 2.121277,-0.05076 3.127039,-0.09245 1.117314,-0.07251 2.234628,-0.135959 3.351942,-0.123269 1.108317,0 2.22743,0.05982 3.335748,0.237476 2.009725,0.319051 3.934887,0.969844 5.311288,2.541536 1.385397,1.589819 1.99893,3.698097 2.236427,5.755618 0.05038,0.422381 -0.410222,0.464075 -0.595541,0.184905 -0.255489,-0.371623 -1.26305,-2.68656 -2.819373,-3.957328 -2.164458,-1.77835 -4.730141,-2.189854 -7.355199,-2.169913 -2.11228,0.0091 -4.265943,0.290047 -6.306255,0.380686 -0.338253,0.01088 -0.698096,0.03263 -1.047144,0.04351 H 17.87522 c -0.717887,-0.02175 -1.435775,-0.125082 -2.042111,-0.424193 -1.023754,-0.516646 -1.383598,-1.580756 -1.360208,-2.664806 0.009,-0.66167 0.133142,-1.303398 0.296871,-1.932438 0.161929,-0.641728 0.212307,-0.99341 -0.361643,-1.437545 -0.973376,-0.743245 0.268084,-2.035766 1.005763,-2.354818 -0.451604,-0.299111 -0.881617,-0.661669 -1.005763,-1.22001 -0.05038,-0.237476 -0.05038,-0.496705 -0.009,-0.734181 0.03059,-0.215722 0.305867,-0.349869 0.449804,-0.494893 0.27708,-0.27917 0.543364,-0.661669 0.503781,-1.064109 -0.05038,-0.496705 -0.593742,-0.795816 -0.922998,-1.116681 -0.586545,-0.578281 -1.353011,-1.664144 -0.809648,-2.521595 0.18532,-0.288234 0.624328,-0.496705 0.901408,-0.68161 0.514576,-0.340805 3.763962,-2.459961 4.697755,-3.388111 0.501982,-0.507582 0.717888,-0.951716 0.842034,-1.633326 0.102555,-0.610911 0.214107,-1.209133 0.358044,-1.809168 0.421017,-1.870802 1.036349,-3.781486 2.398356,-5.1755242 1.191082,-1.2200098 2.893141,-2.1282192 3.05687,-2.2333612 0.08096,-0.059822 0.165528,-0.1450234 0.235697,-0.2374759 0.176323,-0.2574166 0.226701,-0.6000345 0.329257,-0.8882686 0.676505,-1.8798665 2.326387,-3.2648405 4.080624,-4.1132277 1.775827,-0.85745115 3.661406,-1.24901447 5.570375,-1.27076799 z M 101.57119,26.300007 c -5.928416,-0.619976 -14.593445,3.719851 -16.58158,4.535608 -4.217364,1.725779 -7.878771,3.339165 -12.52255,3.844934 -11.824453,1.31065 -17.89681,-6.50974 -21.754332,-9.765516 -1.435775,-1.230887 -2.869751,-2.479901 -4.634782,-3.21227 -0.912203,-0.382499 -1.926962,-0.683423 -2.921929,-0.610911 -0.318461,0.03082 -1.149699,0.134147 -1.149699,0.527523 0,0.40244 0.922998,0.24654 2.236426,1.229073 1.228865,0.90821 2.398356,1.90162 3.456296,2.996548 1.559921,1.602509 3.395122,3.638275 4.983831,5.208154 7.875172,7.760568 12.758247,7.903778 14.913709,8.121314 10.057623,0.980721 17.893212,-3.792364 25.032505,-6.778034 8.213425,-3.451558 12.851805,-2.624924 15.217775,1.455673 0.35985,0.621788 0.85103,0.3118 0.72869,-0.763186 -0.38684,-3.328288 -2.64485,-6.344776 -7.00436,-6.78891 z M 83.325335,62.733523 V 46.510838 h -4.111211 l 0.009,16.781026 c 0,0 -0.223103,4.287256 4.093218,4.287256 h 11.83345 c 0,0 0.75927,-1.46655 1.743441,-3.645527 H 84.568594 c -0.687301,0 -1.243259,-0.527523 -1.243259,-1.20007 z m -19.946119,0 V 46.510838 H 59.25721 V 63.30274 c 0,0 -0.226702,4.27638 4.093218,4.27638 H 77.24578 c 0,0 0.196115,-3.645527 -1.754236,-3.645527 h -10.89066 c -0.678305,0 -1.221668,-0.518459 -1.221668,-1.20007 z M 115.97932,48.577422 c 0,0 -0.84023,-2.088338 -3.03528,-2.088338 h -3.39512 c -2.18245,0 -3.05507,2.088338 -3.05507,2.088338 l -9.00508,18.990821 h 4.88307 l 1.88558,-4.038903 h 13.97812 l 1.88738,4.038903 h 4.87228 z m -10.43905,11.759589 c 0,0 2.91293,-6.529681 4.37029,-9.299629 0.21411,-0.40244 0.60454,-0.929963 1.31163,-0.951716 0.84204,0.02175 1.11732,0.516646 1.33142,0.940839 1.47896,2.759071 4.39009,9.310506 4.39009,9.310506 z M 39.56658,62.610253 V 58.643862 H 51.574553 V 54.953015 H 39.56658 v -3.574828 c 0,0 -0.0108,-1.136621 1.261251,-1.136621 h 13.96912 c 1.51674,0 1.732646,-3.689034 1.732646,-3.689034 H 39.996592 c -4.859685,0 -4.68696,4.225621 -4.68696,4.225621 v 12.452076 c 0,0 0.06297,4.359767 4.791315,4.359767 h 16.542 c 0,0 0.152934,-3.594769 -1.795618,-3.689034 l -14.019498,0.01088 c -1.414185,0 -1.261251,-1.301586 -1.261251,-1.301586 z M 24.131097,61.379367 19.577279,48.5176 c 0.03239,0.04894 -0.397627,-1.664144 -1.516739,-1.685898 -0.349049,-0.06164 -2.491916,-0.04169 -2.491916,-0.04169 0,0 -1.210873,-0.186718 -1.908969,1.745719 L 9.057258,61.361239 4.3505065,46.499961 H 0 l 6.7704533,21.068282 h 4.0590337 l 5.72151,-15.156764 5.518198,15.156764 h 4.237156 l 6.98456,-21.068282 h -4.267743 z"
           id="Fill-1"
           style="fill:#f41247;fill-opacity:1"
           inkscape:connector-curvature="0" />
      </g>
    </g>
  </g>
</svg>
